<svg width="119" height="36" viewBox="0 0 119 36" fill="none" xmlns="http://www.w3.org/2000/svg">
<path d="M43.6777 21.0034V22H39.0566V21.0034H43.6777ZM39.2979 12.7578V22H38.0728V12.7578H39.2979ZM44.5918 18.6421V18.4961C44.5918 18.001 44.6637 17.5418 44.8076 17.1187C44.9515 16.6912 45.1589 16.321 45.4297 16.0078C45.7005 15.6904 46.0285 15.445 46.4136 15.2715C46.7987 15.0938 47.2303 15.0049 47.7085 15.0049C48.1909 15.0049 48.6247 15.0938 49.0098 15.2715C49.3991 15.445 49.7292 15.6904 50 16.0078C50.2751 16.321 50.4845 16.6912 50.6284 17.1187C50.7723 17.5418 50.8442 18.001 50.8442 18.4961V18.6421C50.8442 19.1372 50.7723 19.5964 50.6284 20.0195C50.4845 20.4427 50.2751 20.813 50 21.1304C49.7292 21.4435 49.4012 21.689 49.0161 21.8667C48.6353 22.0402 48.2036 22.127 47.7212 22.127C47.2388 22.127 46.805 22.0402 46.4199 21.8667C46.0348 21.689 45.7048 21.4435 45.4297 21.1304C45.1589 20.813 44.9515 20.4427 44.8076 20.0195C44.6637 19.5964 44.5918 19.1372 44.5918 18.6421ZM45.7661 18.4961V18.6421C45.7661 18.9849 45.8063 19.3086 45.8867 19.6133C45.9671 19.9137 46.0877 20.1803 46.2485 20.4131C46.4136 20.6458 46.6188 20.8299 46.8643 20.9653C47.1097 21.0965 47.3953 21.1621 47.7212 21.1621C48.0428 21.1621 48.3242 21.0965 48.5654 20.9653C48.8109 20.8299 49.014 20.6458 49.1748 20.4131C49.3356 20.1803 49.4562 19.9137 49.5366 19.6133C49.6213 19.3086 49.6636 18.9849 49.6636 18.6421V18.4961C49.6636 18.1576 49.6213 17.8381 49.5366 17.5376C49.4562 17.2329 49.3335 16.9642 49.1685 16.7314C49.0076 16.4945 48.8045 16.3083 48.5591 16.1729C48.3179 16.0374 48.0343 15.9697 47.7085 15.9697C47.3869 15.9697 47.1034 16.0374 46.8579 16.1729C46.6167 16.3083 46.4136 16.4945 46.2485 16.7314C46.0877 16.9642 45.9671 17.2329 45.8867 17.5376C45.8063 17.8381 45.7661 18.1576 45.7661 18.4961ZM56.7666 15.1318H57.833V21.854C57.833 22.4591 57.7103 22.9754 57.4648 23.4028C57.2194 23.8302 56.8766 24.154 56.4365 24.374C56.0007 24.5983 55.4971 24.7104 54.9258 24.7104C54.6888 24.7104 54.4095 24.6724 54.0879 24.5962C53.7705 24.5243 53.4574 24.3994 53.1484 24.2217C52.8438 24.0482 52.5877 23.8133 52.3804 23.5171L52.9961 22.8188C53.2839 23.1659 53.5843 23.4071 53.8975 23.5425C54.2148 23.6779 54.528 23.7456 54.8369 23.7456C55.2093 23.7456 55.5309 23.6758 55.8018 23.5361C56.0726 23.3965 56.2821 23.1891 56.4302 22.9141C56.5825 22.6432 56.6587 22.3089 56.6587 21.9111V16.6426L56.7666 15.1318ZM52.0376 18.6421V18.5088C52.0376 17.984 52.099 17.508 52.2217 17.0806C52.3486 16.6489 52.5285 16.2786 52.7612 15.9697C52.9982 15.6608 53.2839 15.4238 53.6182 15.2588C53.9525 15.0895 54.3291 15.0049 54.748 15.0049C55.1797 15.0049 55.5563 15.0811 55.8779 15.2334C56.2038 15.3815 56.4788 15.5994 56.7031 15.8872C56.9316 16.1707 57.1115 16.5135 57.2427 16.9155C57.3739 17.3175 57.4648 17.7725 57.5156 18.2803V18.8643C57.4691 19.3678 57.3781 19.8206 57.2427 20.2227C57.1115 20.6247 56.9316 20.9674 56.7031 21.251C56.4788 21.5345 56.2038 21.7524 55.8779 21.9048C55.5521 22.0529 55.1712 22.127 54.7354 22.127C54.3249 22.127 53.9525 22.0402 53.6182 21.8667C53.2881 21.6932 53.0046 21.4499 52.7676 21.1367C52.5306 20.8236 52.3486 20.4554 52.2217 20.0322C52.099 19.6048 52.0376 19.1414 52.0376 18.6421ZM53.2119 18.5088V18.6421C53.2119 18.9849 53.2458 19.3065 53.3135 19.6069C53.3854 19.9074 53.4933 20.1719 53.6372 20.4004C53.7853 20.6289 53.9736 20.8088 54.2021 20.9399C54.4307 21.0669 54.7036 21.1304 55.021 21.1304C55.4103 21.1304 55.7319 21.0479 55.9858 20.8828C56.2397 20.7178 56.4408 20.4998 56.5889 20.229C56.7412 19.9582 56.8597 19.6641 56.9443 19.3467V17.8169C56.8978 17.5841 56.8258 17.3599 56.7285 17.144C56.6354 16.924 56.5127 16.7293 56.3604 16.5601C56.2122 16.3866 56.0282 16.249 55.8081 16.1475C55.5881 16.0459 55.3299 15.9951 55.0337 15.9951C54.7121 15.9951 54.4349 16.0628 54.2021 16.1982C53.9736 16.3294 53.7853 16.5114 53.6372 16.7441C53.4933 16.9727 53.3854 17.2393 53.3135 17.5439C53.2458 17.8444 53.2119 18.166 53.2119 18.5088ZM59.3057 18.6421V18.4961C59.3057 18.001 59.3776 17.5418 59.5215 17.1187C59.6654 16.6912 59.8727 16.321 60.1436 16.0078C60.4144 15.6904 60.7424 15.445 61.1274 15.2715C61.5125 15.0938 61.9442 15.0049 62.4224 15.0049C62.9048 15.0049 63.3385 15.0938 63.7236 15.2715C64.113 15.445 64.443 15.6904 64.7139 16.0078C64.9889 16.321 65.1984 16.6912 65.3423 17.1187C65.4862 17.5418 65.5581 18.001 65.5581 18.4961V18.6421C65.5581 19.1372 65.4862 19.5964 65.3423 20.0195C65.1984 20.4427 64.9889 20.813 64.7139 21.1304C64.443 21.4435 64.1151 21.689 63.73 21.8667C63.3491 22.0402 62.9175 22.127 62.4351 22.127C61.9526 22.127 61.5189 22.0402 61.1338 21.8667C60.7487 21.689 60.4186 21.4435 60.1436 21.1304C59.8727 20.813 59.6654 20.4427 59.5215 20.0195C59.3776 19.5964 59.3057 19.1372 59.3057 18.6421ZM60.48 18.4961V18.6421C60.48 18.9849 60.5202 19.3086 60.6006 19.6133C60.681 19.9137 60.8016 20.1803 60.9624 20.4131C61.1274 20.6458 61.3327 20.8299 61.5781 20.9653C61.8236 21.0965 62.1092 21.1621 62.4351 21.1621C62.7567 21.1621 63.0381 21.0965 63.2793 20.9653C63.5247 20.8299 63.7279 20.6458 63.8887 20.4131C64.0495 20.1803 64.1701 19.9137 64.2505 19.6133C64.3351 19.3086 64.3774 18.9849 64.3774 18.6421V18.4961C64.3774 18.1576 64.3351 17.8381 64.2505 17.5376C64.1701 17.2329 64.0474 16.9642 63.8823 16.7314C63.7215 16.4945 63.5184 16.3083 63.2729 16.1729C63.0317 16.0374 62.7482 15.9697 62.4224 15.9697C62.1007 15.9697 61.8172 16.0374 61.5718 16.1729C61.3306 16.3083 61.1274 16.4945 60.9624 16.7314C60.8016 16.9642 60.681 17.2329 60.6006 17.5376C60.5202 17.8381 60.48 18.1576 60.48 18.4961ZM73.1055 22.127C72.6273 22.127 72.1935 22.0465 71.8042 21.8857C71.4191 21.7207 71.0869 21.4901 70.8076 21.1938C70.5326 20.8976 70.321 20.5464 70.1729 20.1401C70.0247 19.7339 69.9507 19.2896 69.9507 18.8071V18.5405C69.9507 17.9819 70.0332 17.4847 70.1982 17.0488C70.3633 16.6087 70.5876 16.2363 70.8711 15.9316C71.1546 15.627 71.4762 15.3963 71.8359 15.2397C72.1956 15.0832 72.568 15.0049 72.9531 15.0049C73.444 15.0049 73.8672 15.0895 74.2227 15.2588C74.5824 15.4281 74.8765 15.665 75.105 15.9697C75.3335 16.2702 75.5028 16.6257 75.6128 17.0361C75.7228 17.4424 75.7778 17.8867 75.7778 18.3691V18.896H70.6489V17.9375H74.6035V17.8486C74.5866 17.5439 74.5231 17.2477 74.4131 16.96C74.3073 16.6722 74.138 16.4352 73.9053 16.249C73.6725 16.0628 73.3551 15.9697 72.9531 15.9697C72.6865 15.9697 72.4411 16.0269 72.2168 16.1411C71.9925 16.2511 71.8 16.4162 71.6392 16.6362C71.4784 16.8563 71.3535 17.125 71.2646 17.4424C71.1758 17.7598 71.1313 18.1258 71.1313 18.5405V18.8071C71.1313 19.133 71.1758 19.4398 71.2646 19.7275C71.3577 20.0111 71.491 20.2607 71.6646 20.4766C71.8423 20.6924 72.056 20.8617 72.3057 20.9844C72.5596 21.1071 72.8473 21.1685 73.1689 21.1685C73.5837 21.1685 73.9349 21.0838 74.2227 20.9146C74.5104 20.7453 74.7622 20.5189 74.978 20.2354L75.689 20.8003C75.5409 21.0246 75.3525 21.2383 75.124 21.4414C74.8955 21.6445 74.6141 21.8096 74.2798 21.9365C73.9497 22.0635 73.5583 22.127 73.1055 22.127ZM77.9424 15.1318L79.4468 17.6328L80.9702 15.1318H82.3477L80.1006 18.5215L82.4175 22H81.0591L79.4722 19.4229L77.8853 22H76.5205L78.8311 18.5215L76.5903 15.1318H77.9424ZM87.6479 20.8257V17.29C87.6479 17.0192 87.5929 16.7843 87.4829 16.5854C87.3771 16.3823 87.2163 16.2257 87.0005 16.1157C86.7847 16.0057 86.5181 15.9507 86.2007 15.9507C85.9045 15.9507 85.6442 16.0015 85.4199 16.103C85.1999 16.2046 85.0264 16.3379 84.8994 16.5029C84.7767 16.668 84.7153 16.8457 84.7153 17.0361H83.541C83.541 16.7907 83.6045 16.5474 83.7314 16.3062C83.8584 16.0649 84.0404 15.847 84.2773 15.6523C84.5186 15.4535 84.8063 15.2969 85.1406 15.1826C85.4792 15.0641 85.8558 15.0049 86.2705 15.0049C86.7699 15.0049 87.21 15.0895 87.5908 15.2588C87.9759 15.4281 88.2764 15.6841 88.4922 16.0269C88.7122 16.3654 88.8223 16.7907 88.8223 17.3027V20.502C88.8223 20.7305 88.8413 20.9738 88.8794 21.2319C88.9217 21.4901 88.9831 21.7122 89.0635 21.8984V22H87.8384C87.7791 21.8646 87.7326 21.6847 87.6987 21.4604C87.6649 21.2319 87.6479 21.0203 87.6479 20.8257ZM87.8511 17.8359L87.8638 18.6611H86.6768C86.3424 18.6611 86.0441 18.6886 85.7817 18.7437C85.5194 18.7944 85.2993 18.8727 85.1216 18.9785C84.9438 19.0843 84.8084 19.2176 84.7153 19.3784C84.6222 19.535 84.5757 19.7191 84.5757 19.9307C84.5757 20.1465 84.6243 20.3433 84.7217 20.521C84.819 20.6987 84.965 20.8405 85.1597 20.9463C85.3586 21.0479 85.6019 21.0986 85.8896 21.0986C86.2493 21.0986 86.5667 21.0225 86.8418 20.8701C87.1169 20.7178 87.3348 20.5316 87.4956 20.3115C87.6606 20.0915 87.7495 19.8778 87.7622 19.6704L88.2637 20.2354C88.234 20.4131 88.1536 20.6099 88.0225 20.8257C87.8913 21.0415 87.7157 21.2489 87.4956 21.4478C87.2798 21.6424 87.0216 21.8053 86.7212 21.9365C86.425 22.0635 86.0907 22.127 85.7183 22.127C85.2528 22.127 84.8444 22.036 84.4932 21.854C84.1462 21.672 83.8753 21.4287 83.6807 21.124C83.4902 20.8151 83.395 20.4702 83.395 20.0894C83.395 19.7212 83.467 19.3975 83.6108 19.1182C83.7547 18.8346 83.9621 18.5998 84.2329 18.4136C84.5037 18.2231 84.8296 18.0793 85.2104 17.9819C85.5913 17.8846 86.0166 17.8359 86.4863 17.8359H87.8511ZM91.8374 16.4966V22H90.6567V15.1318H91.7739L91.8374 16.4966ZM91.5962 18.3057L91.0503 18.2866C91.0545 17.8169 91.1159 17.3831 91.2344 16.9854C91.3529 16.5833 91.5285 16.2342 91.7612 15.938C91.994 15.6418 92.2839 15.4132 92.6309 15.2524C92.9779 15.0874 93.3799 15.0049 93.8369 15.0049C94.1585 15.0049 94.4548 15.0514 94.7256 15.1445C94.9964 15.2334 95.2313 15.3752 95.4302 15.5698C95.6291 15.7645 95.7835 16.0142 95.8936 16.3188C96.0036 16.6235 96.0586 16.9917 96.0586 17.4233V22H94.8843V17.4805C94.8843 17.1208 94.8229 16.833 94.7002 16.6172C94.5817 16.4014 94.4124 16.2448 94.1924 16.1475C93.9723 16.0459 93.7142 15.9951 93.418 15.9951C93.071 15.9951 92.7811 16.0565 92.5483 16.1792C92.3156 16.3019 92.1294 16.4712 91.9897 16.687C91.8501 16.9028 91.7485 17.1504 91.6851 17.4297C91.6258 17.7048 91.5962 17.9967 91.5962 18.3057ZM96.0459 17.6582L95.2588 17.8994C95.263 17.5228 95.3244 17.161 95.4429 16.814C95.5656 16.467 95.7412 16.158 95.9697 15.8872C96.2025 15.6164 96.4881 15.4027 96.8267 15.2461C97.1652 15.0853 97.5524 15.0049 97.9883 15.0049C98.3564 15.0049 98.6823 15.0535 98.9658 15.1509C99.2536 15.2482 99.4948 15.3984 99.6895 15.6016C99.8883 15.8005 100.039 16.0565 100.14 16.3696C100.242 16.6828 100.292 17.0552 100.292 17.4868V22H99.1118V17.4741C99.1118 17.089 99.0505 16.7907 98.9277 16.5791C98.8092 16.3633 98.64 16.2131 98.4199 16.1284C98.2041 16.0396 97.946 15.9951 97.6455 15.9951C97.3874 15.9951 97.1589 16.0396 96.96 16.1284C96.7611 16.2173 96.5939 16.34 96.4585 16.4966C96.3231 16.6489 96.2194 16.8245 96.1475 17.0234C96.0798 17.2223 96.0459 17.4339 96.0459 17.6582ZM103.244 16.4521V24.6406H102.063V15.1318H103.143L103.244 16.4521ZM107.872 18.5088V18.6421C107.872 19.1414 107.812 19.6048 107.694 20.0322C107.575 20.4554 107.402 20.8236 107.173 21.1367C106.949 21.4499 106.672 21.6932 106.342 21.8667C106.012 22.0402 105.633 22.127 105.206 22.127C104.77 22.127 104.385 22.055 104.05 21.9111C103.716 21.7673 103.432 21.5578 103.2 21.2827C102.967 21.0076 102.781 20.6776 102.641 20.2925C102.506 19.9074 102.413 19.4736 102.362 18.9912V18.2803C102.413 17.7725 102.508 17.3175 102.647 16.9155C102.787 16.5135 102.971 16.1707 103.2 15.8872C103.432 15.5994 103.714 15.3815 104.044 15.2334C104.374 15.0811 104.755 15.0049 105.187 15.0049C105.618 15.0049 106.001 15.0895 106.335 15.2588C106.67 15.4238 106.951 15.6608 107.18 15.9697C107.408 16.2786 107.58 16.6489 107.694 17.0806C107.812 17.508 107.872 17.984 107.872 18.5088ZM106.691 18.6421V18.5088C106.691 18.166 106.655 17.8444 106.583 17.5439C106.511 17.2393 106.399 16.9727 106.247 16.7441C106.098 16.5114 105.908 16.3294 105.675 16.1982C105.443 16.0628 105.165 15.9951 104.844 15.9951C104.548 15.9951 104.289 16.0459 104.069 16.1475C103.854 16.249 103.669 16.3866 103.517 16.5601C103.365 16.7293 103.24 16.924 103.143 17.144C103.049 17.3599 102.98 17.5841 102.933 17.8169V19.4609C103.018 19.7572 103.136 20.0365 103.289 20.2988C103.441 20.557 103.644 20.7664 103.898 20.9272C104.152 21.0838 104.471 21.1621 104.856 21.1621C105.174 21.1621 105.447 21.0965 105.675 20.9653C105.908 20.8299 106.098 20.6458 106.247 20.4131C106.399 20.1803 106.511 19.9137 106.583 19.6133C106.655 19.3086 106.691 18.9849 106.691 18.6421ZM110.646 12.25V22H109.465V12.25H110.646ZM115.381 22.127C114.903 22.127 114.469 22.0465 114.08 21.8857C113.694 21.7207 113.362 21.4901 113.083 21.1938C112.808 20.8976 112.596 20.5464 112.448 20.1401C112.3 19.7339 112.226 19.2896 112.226 18.8071V18.5405C112.226 17.9819 112.309 17.4847 112.474 17.0488C112.639 16.6087 112.863 16.2363 113.146 15.9316C113.43 15.627 113.752 15.3963 114.111 15.2397C114.471 15.0832 114.843 15.0049 115.229 15.0049C115.719 15.0049 116.143 15.0895 116.498 15.2588C116.858 15.4281 117.152 15.665 117.38 15.9697C117.609 16.2702 117.778 16.6257 117.888 17.0361C117.998 17.4424 118.053 17.8867 118.053 18.3691V18.896H112.924V17.9375H116.879V17.8486C116.862 17.5439 116.799 17.2477 116.688 16.96C116.583 16.6722 116.413 16.4352 116.181 16.249C115.948 16.0628 115.631 15.9697 115.229 15.9697C114.962 15.9697 114.716 16.0269 114.492 16.1411C114.268 16.2511 114.075 16.4162 113.915 16.6362C113.754 16.8563 113.629 17.125 113.54 17.4424C113.451 17.7598 113.407 18.1258 113.407 18.5405V18.8071C113.407 19.133 113.451 19.4398 113.54 19.7275C113.633 20.0111 113.766 20.2607 113.94 20.4766C114.118 20.6924 114.331 20.8617 114.581 20.9844C114.835 21.1071 115.123 21.1685 115.444 21.1685C115.859 21.1685 116.21 21.0838 116.498 20.9146C116.786 20.7453 117.038 20.5189 117.253 20.2354L117.964 20.8003C117.816 21.0246 117.628 21.2383 117.399 21.4414C117.171 21.6445 116.889 21.8096 116.555 21.9365C116.225 22.0635 115.834 22.127 115.381 22.127Z" fill="#8DC63F"/>
<path d="M0.5 8C0.5 3.85786 3.85786 0.5 8 0.5H15.5V35.5H8C3.85786 35.5 0.5 32.1421 0.5 28V8Z" fill="#006838" stroke="white"/>
<path d="M16.5 0.5H24C28.1421 0.5 31.5 3.85786 31.5 8V28C31.5 32.1421 28.1421 35.5 24 35.5H16.5V0.5Z" fill="#8DC63F" stroke="white"/>
<path d="M21.0003 12C21.0003 11.953 20.9996 11.9061 20.9983 11.8594C20.9239 9.163 18.7147 7 16.0003 7C13.3108 7 11.1173 9.12341 11.0048 11.7852C11.0018 11.8564 11.0003 11.928 11.0003 12M21.0003 12H11.0003M21.0003 12H22.309C24.3947 12 25.4375 12 26.0338 12.6662C26.63 13.3323 26.5148 14.3688 26.2845 16.4417L25.9887 19.1043C25.5185 23.3356 25.2835 25.4513 23.8597 26.7256C22.4359 28 20.2907 28 16.0003 28C11.7099 28 9.56467 28 8.14087 26.7256C6.71707 25.4513 6.482 23.3356 6.01186 19.1043L5.71601 16.4417C5.48569 14.3688 5.37052 13.3323 5.96676 12.6662C6.563 12 7.60585 12 9.69155 12H11.0003" stroke="white" stroke-width="1.5"/>
</svg>
