<svg width="14" height="14" viewBox="0 0 14 14" fill="none" xmlns="http://www.w3.org/2000/svg">
<path d="M4.50002 0.666748C2.38882 0.666748 0.666687 2.38888 0.666687 4.50008V9.50008C0.666687 11.611 2.38876 13.3334 4.50002 13.3334H9.50002C11.611 13.3334 13.3334 11.6111 13.3334 9.50008V4.50008C13.3334 2.38882 11.6109 0.666748 9.50002 0.666748H4.50002ZM4.50002 1.66675H9.50002C11.0704 1.66675 12.3334 2.92934 12.3334 4.50008V9.50008C12.3334 11.0704 11.0704 12.3334 9.50002 12.3334H4.50002C2.92928 12.3334 1.66669 11.0705 1.66669 9.50008V4.50008C1.66669 2.92928 2.92922 1.66675 4.50002 1.66675ZM10.3334 3.00008C9.96502 3.00008 9.66669 3.29841 9.66669 3.66675C9.66669 4.03508 9.96502 4.33341 10.3334 4.33341C10.7017 4.33341 11 4.03508 11 3.66675C11 3.29841 10.7017 3.00008 10.3334 3.00008ZM7.00002 3.66675C5.16508 3.66675 3.66669 5.16514 3.66669 7.00008C3.66669 8.83502 5.16508 10.3334 7.00002 10.3334C8.83496 10.3334 10.3334 8.83502 10.3334 7.00008C10.3334 5.16514 8.83496 3.66675 7.00002 3.66675ZM7.00002 4.66675C8.29441 4.66675 9.33335 5.70569 9.33335 7.00008C9.33335 8.29447 8.29441 9.33341 7.00002 9.33341C5.70563 9.33341 4.66669 8.29447 4.66669 7.00008C4.66669 5.70569 5.70563 4.66675 7.00002 4.66675Z" fill="#FCFCFC"/>
</svg>
