<svg width="18" height="18" viewBox="0 0 18 18" fill="none" xmlns="http://www.w3.org/2000/svg">
<path d="M12.4421 11.067H11.7179L11.4613 10.8195C12.3596 9.77448 12.9004 8.41781 12.9004 6.94198C12.9004 3.65114 10.2329 0.983643 6.9421 0.983643C3.65126 0.983643 0.983765 3.65114 0.983765 6.94198C0.983765 10.2328 3.65126 12.9003 6.9421 12.9003C8.41793 12.9003 9.7746 12.3595 10.8196 11.4611L11.0671 11.7178V12.442L15.6504 17.0161L17.0163 15.6503L12.4421 11.067ZM6.9421 11.067C4.6596 11.067 2.8171 9.22448 2.8171 6.94198C2.8171 4.65948 4.6596 2.81698 6.9421 2.81698C9.2246 2.81698 11.0671 4.65948 11.0671 6.94198C11.0671 9.22448 9.2246 11.067 6.9421 11.067Z" fill="#262626"/>
</svg>
