<svg width="20" height="20" viewBox="0 0 20 20" fill="none" xmlns="http://www.w3.org/2000/svg">
<path d="M9.99084 0.833252C4.93084 0.833252 0.833344 4.93992 0.833344 9.99992C0.833344 15.0599 4.93084 19.1666 9.99084 19.1666C15.06 19.1666 19.1667 15.0599 19.1667 9.99992C19.1667 4.93992 15.06 0.833252 9.99084 0.833252ZM16.3433 6.33325H13.6392C13.3458 5.18742 12.9242 4.08742 12.3742 3.06992C14.0608 3.64742 15.4633 4.82075 16.3433 6.33325ZM10 2.70325C10.7608 3.80325 11.3567 5.02242 11.7508 6.33325H8.24918C8.64334 5.02242 9.23918 3.80325 10 2.70325ZM2.90501 11.8333C2.75834 11.2466 2.66668 10.6324 2.66668 9.99992C2.66668 9.36742 2.75834 8.75325 2.90501 8.16659H6.00334C5.93001 8.77159 5.87501 9.37659 5.87501 9.99992C5.87501 10.6233 5.93001 11.2283 6.00334 11.8333H2.90501ZM3.65668 13.6666H6.36084C6.65418 14.8124 7.07584 15.9124 7.62584 16.9299C5.93918 16.3524 4.53668 15.1883 3.65668 13.6666ZM6.36084 6.33325H3.65668C4.53668 4.81159 5.93918 3.64742 7.62584 3.06992C7.07584 4.08742 6.65418 5.18742 6.36084 6.33325ZM10 17.2966C9.23918 16.1966 8.64334 14.9774 8.24918 13.6666H11.7508C11.3567 14.9774 10.7608 16.1966 10 17.2966ZM12.145 11.8333H7.85501C7.77251 11.2283 7.70834 10.6233 7.70834 9.99992C7.70834 9.37659 7.77251 8.76242 7.85501 8.16659H12.145C12.2275 8.76242 12.2917 9.37659 12.2917 9.99992C12.2917 10.6233 12.2275 11.2283 12.145 11.8333ZM12.3742 16.9299C12.9242 15.9124 13.3458 14.8124 13.6392 13.6666H16.3433C15.4633 15.1791 14.0608 16.3524 12.3742 16.9299ZM13.9967 11.8333C14.07 11.2283 14.125 10.6233 14.125 9.99992C14.125 9.37659 14.07 8.77159 13.9967 8.16659H17.095C17.2417 8.75325 17.3333 9.36742 17.3333 9.99992C17.3333 10.6324 17.2417 11.2466 17.095 11.8333H13.9967Z" fill="#262626"/>
</svg>
