<svg width="20" height="20" viewBox="0 0 20 20" fill="none" xmlns="http://www.w3.org/2000/svg">
<mask id="path-1-inside-1_792_3867" fill="white">
<path d="M10 0C4.48 0 0 4.48 0 10C0 15.52 4.48 20 10 20C15.52 20 20 15.52 20 10C20 4.48 15.52 0 10 0ZM10 18C5.59 18 2 14.41 2 10C2 5.59 5.59 2 10 2C14.41 2 18 5.59 18 10C18 14.41 14.41 18 10 18Z"/>
</mask>
<path d="M10 0C4.48 0 0 4.48 0 10C0 15.52 4.48 20 10 20C15.52 20 20 15.52 20 10C20 4.48 15.52 0 10 0ZM10 18C5.59 18 2 14.41 2 10C2 5.59 5.59 2 10 2C14.41 2 18 5.59 18 10C18 14.41 14.41 18 10 18Z" fill="#646464"/>
<path d="M10 -1C3.92772 -1 -1 3.92772 -1 10H1C1 5.03228 5.03228 1 10 1V-1ZM-1 10C-1 16.0723 3.92772 21 10 21V19C5.03228 19 1 14.9677 1 10H-1ZM10 21C16.0723 21 21 16.0723 21 10H19C19 14.9677 14.9677 19 10 19V21ZM21 10C21 3.92772 16.0723 -1 10 -1V1C14.9677 1 19 5.03228 19 10H21ZM10 17C6.14228 17 3 13.8577 3 10H1C1 14.9623 5.03772 19 10 19V17ZM3 10C3 6.14228 6.14228 3 10 3V1C5.03772 1 1 5.03772 1 10H3ZM10 3C13.8577 3 17 6.14228 17 10H19C19 5.03772 14.9623 1 10 1V3ZM17 10C17 13.8577 13.8577 17 10 17V19C14.9623 19 19 14.9623 19 10H17Z" fill="#AFAFAF" mask="url(#path-1-inside-1_792_3867)"/>
</svg>
