<svg width="22" height="22" viewBox="0 0 22 22" fill="none" xmlns="http://www.w3.org/2000/svg">
<path d="M10.9199 8.11721H12.9199V5.12127H15.9199V3.12399H12.9199V0.128052H10.9199V3.12399H7.91992V5.12127H10.9199V8.11721ZM6.91992 17.105C5.81992 17.105 4.92992 18.0038 4.92992 19.1023C4.92992 20.2008 5.81992 21.0996 6.91992 21.0996C8.01992 21.0996 8.91992 20.2008 8.91992 19.1023C8.91992 18.0038 8.01992 17.105 6.91992 17.105ZM16.9199 17.105C15.8199 17.105 14.9299 18.0038 14.9299 19.1023C14.9299 20.2008 15.8199 21.0996 16.9199 21.0996C18.0199 21.0996 18.9199 20.2008 18.9199 19.1023C18.9199 18.0038 18.0199 17.105 16.9199 17.105ZM8.01992 12.1118H15.4699C16.2199 12.1118 16.8799 11.7023 17.2199 11.0832L21.0799 4.08268L19.3399 3.12399L15.4699 10.1145H8.44992L4.18992 1.1267H0.919922V3.12399H2.91992L6.51992 10.7037L5.16992 13.1404C4.43992 14.4786 5.39992 16.1064 6.91992 16.1064H18.9199V14.1091H6.91992L8.01992 12.1118Z" fill="#AFAFAF"/>
</svg>
